<?xml version="1.0" standalone="no"?>
<!DOCTYPE svg PUBLIC "-//W3C//DTD SVG 20010904//EN"
 "http://www.w3.org/TR/2001/REC-SVG-20010904/DTD/svg10.dtd">
<svg version="1.0" xmlns="http://www.w3.org/2000/svg"
 width="7034.000000pt" height="7795.000000pt" viewBox="0 0 7034.000000 7795.000000"
 preserveAspectRatio="xMidYMid meet">

<g transform="translate(0.000000,7795.000000) scale(0.100000,-0.100000)"
fill="#000000" stroke="none">
<path d="M26793 67243 l-72 -25 -3 -121 -3 -122 74 -90 c41 -49 78 -91 82 -93
5 -2 45 9 88 24 l80 28 3 120 3 121 -74 90 c-41 50 -81 91 -90 92 -9 1 -48
-10 -88 -24z m166 -70 l71 -88 0 -111 c0 -77 -4 -115 -12 -121 -22 -17 -142
-53 -149 -46 -4 5 -37 44 -73 88 l-66 79 0 113 c0 77 4 114 12 120 12 8 126
51 139 52 4 1 39 -38 78 -86z"/>
<path d="M62620 65714 c-36 -18 -71 -33 -78 -33 -15 -1 -68 -36 -135 -89 -55
-45 -108 -76 -397 -242 -301 -171 -349 -199 -395 -229 -22 -14 -49 -31 -60
-37 -11 -6 -150 -86 -310 -179 -159 -92 -310 -179 -335 -193 -25 -14 -57 -33
-72 -43 -14 -11 -28 -19 -31 -19 -3 0 -41 -21 -84 -46 -120 -72 -527 -308
-610 -355 -17 -10 -50 -29 -72 -43 -22 -15 -43 -26 -45 -26 -3 0 -65 -35 -138
-79 -112 -66 -291 -170 -413 -241 -27 -15 -121 -70 -163 -95 -10 -5 -130 -75
-267 -154 -138 -79 -278 -161 -312 -182 -34 -22 -65 -39 -68 -39 -3 0 -31 -16
-61 -35 -30 -19 -56 -35 -59 -35 -2 0 -64 -35 -137 -78 -73 -43 -225 -131
-338 -197 -113 -65 -233 -135 -267 -157 -34 -21 -64 -38 -67 -38 -2 0 -91 -51
-198 -113 -106 -63 -224 -131 -261 -153 -38 -21 -81 -46 -95 -55 -15 -9 -48
-27 -74 -42 -25 -14 -64 -37 -87 -51 -22 -14 -43 -26 -46 -26 -3 0 -31 -16
-61 -35 -30 -19 -56 -35 -58 -35 -2 0 -50 -27 -106 -61 -122 -72 -278 -162
-340 -197 -25 -13 -49 -28 -55 -32 -9 -6 -214 -126 -315 -183 -19 -11 -114
-66 -210 -122 -97 -57 -198 -115 -225 -131 -28 -15 -124 -71 -215 -124 -91
-53 -230 -134 -310 -179 -80 -46 -162 -94 -182 -107 -21 -13 -40 -24 -43 -24
-2 0 -35 -19 -72 -42 -38 -22 -84 -50 -103 -61 -40 -22 -298 -172 -505 -292
-77 -45 -171 -99 -208 -121 -38 -21 -83 -47 -100 -58 -18 -10 -117 -68 -222
-129 -104 -60 -257 -150 -340 -198 -82 -48 -168 -97 -190 -109 -57 -32 -519
-301 -640 -373 -27 -17 -66 -39 -85 -50 -69 -39 -368 -211 -505 -291 -77 -46
-162 -96 -190 -112 -27 -16 -58 -33 -67 -39 -9 -5 -29 -17 -45 -26 -59 -33
-326 -187 -518 -299 -110 -65 -222 -130 -250 -146 -27 -15 -124 -71 -215 -124
-91 -53 -230 -134 -310 -180 -80 -46 -173 -100 -207 -122 -34 -21 -64 -38 -67
-38 -4 0 -253 -145 -471 -273 -38 -23 -83 -49 -100 -58 -16 -9 -91 -52 -165
-96 -75 -44 -142 -82 -150 -86 -8 -4 -31 -17 -50 -28 -45 -27 -318 -187 -433
-253 -49 -28 -96 -56 -105 -61 -16 -10 -146 -84 -222 -127 -58 -33 -287 -166
-415 -242 -66 -39 -129 -76 -140 -82 -443 -245 -683 -384 -1185 -684 -168
-101 -325 -194 -349 -207 -77 -44 -327 -201 -538 -340 -45 -30 -133 -78 -195
-107 -200 -95 -867 -303 -1350 -421 -144 -35 -238 -63 -238 -70 0 -7 56 -63
124 -125 207 -188 330 -330 621 -715 157 -208 365 -470 423 -532 32 -34 39
-34 117 -3 11 4 38 14 60 23 22 8 68 27 101 41 34 14 64 26 68 26 3 0 26 9 51
20 25 11 64 28 88 38 191 83 401 189 586 296 69 40 173 99 231 131 100 56 133
75 330 192 47 28 173 101 280 163 107 61 202 118 210 125 8 7 65 41 125 76
133 75 159 91 770 494 77 51 199 127 271 168 72 41 150 87 173 101 22 14 43
26 45 26 2 0 37 20 78 43 123 73 476 277 594 343 61 34 191 110 288 168 97 58
178 106 181 106 2 0 99 57 217 126 117 69 229 135 248 145 19 10 53 30 75 44
22 14 47 28 55 32 8 3 39 21 68 40 29 18 54 33 57 33 2 0 66 36 142 81 196
115 244 143 468 271 110 63 241 138 290 167 50 29 110 65 135 79 25 14 62 36
84 50 43 26 272 159 344 199 26 14 52 29 57 33 6 4 26 17 46 28 88 49 333 191
424 245 55 33 120 71 145 85 25 14 59 34 75 44 17 10 37 21 45 25 8 3 26 14
40 23 14 10 45 29 70 42 25 14 83 48 130 75 73 43 412 239 520 301 103 59 477
276 555 322 102 60 126 74 210 120 33 18 72 41 87 51 14 11 29 19 32 19 4 0
23 11 44 23 54 35 485 284 612 355 25 14 140 81 255 150 116 68 225 133 243
143 116 67 236 135 302 172 19 10 60 34 90 52 124 74 398 234 445 260 28 16
78 45 112 67 34 21 65 38 68 38 3 0 34 17 68 38 34 22 127 76 207 122 80 46
206 119 280 163 74 44 149 88 167 98 17 10 50 29 72 43 22 15 42 26 44 26 2 0
42 22 88 48 414 239 497 287 521 303 14 11 28 19 31 19 3 0 104 58 224 128
120 71 250 146 288 167 39 21 121 69 183 106 63 38 115 69 117 69 2 0 49 27
105 60 56 33 104 60 106 60 2 0 23 12 47 27 49 31 215 128 379 222 18 10 80
46 136 80 57 34 138 81 180 103 43 23 101 56 130 75 29 18 55 33 57 33 3 0 45
24 93 53 183 111 313 188 440 258 130 71 374 212 667 385 83 49 155 91 160 93
6 2 28 15 50 29 50 32 243 142 249 142 15 0 20 -256 31 -1855 3 -412 7 -943
10 -1180 3 -236 7 -837 10 -1335 3 -498 7 -1076 10 -1285 3 -209 7 -792 10
-1295 3 -503 7 -1113 10 -1355 3 -242 7 -829 10 -1305 3 -476 7 -1065 10
-1310 3 -245 8 -731 11 -1082 l6 -636 -23 -15 c-13 -9 -37 -19 -54 -23 -45
-11 -437 -150 -730 -258 -143 -53 -334 -124 -425 -158 -175 -64 -418 -174
-460 -208 -70 -56 -113 -79 -194 -104 -49 -16 -101 -35 -115 -42 -14 -8 -40
-14 -58 -14 -17 0 -64 -12 -103 -26 -65 -24 -82 -38 -191 -146 -85 -84 -127
-133 -144 -171 -14 -28 -25 -58 -25 -66 0 -38 -68 -184 -340 -726 -162 -325
-333 -669 -379 -765 -47 -96 -156 -321 -244 -500 -88 -179 -172 -352 -187
-385 -15 -33 -47 -100 -70 -150 -23 -49 -113 -252 -200 -450 -87 -198 -178
-403 -203 -455 -66 -139 -116 -264 -143 -355 -13 -44 -24 -83 -24 -87 0 -3 21
-14 48 -24 231 -85 440 -180 725 -332 196 -103 204 -105 237 -42 32 61 90 177
108 220 11 25 63 133 114 240 52 107 137 285 188 395 52 110 207 427 346 705
305 612 381 768 548 1129 123 265 431 870 454 892 9 9 58 35 107 57 50 22 126
57 170 77 227 106 588 252 894 362 69 25 182 65 251 90 69 25 217 76 330 115
206 70 283 99 330 123 14 7 54 22 90 35 53 18 77 21 131 15 62 -6 74 -3 195
42 71 27 229 82 351 123 191 63 221 76 210 88 -8 10 -8 16 -1 19 6 2 9 31 6
78 -2 41 1 75 5 75 5 0 9 8 10 18 1 9 5 33 8 52 7 42 7 43 5 145 -1 73 14 175
40 264 5 19 7 38 4 43 -3 5 -1 15 5 22 16 20 26 155 24 346 -1 96 -4 582 -7
1080 -3 498 -8 1114 -11 1370 -3 256 -7 859 -10 1340 -3 481 -7 1019 -10 1195
-3 176 -7 660 -10 1075 -3 415 -8 998 -10 1295 -3 297 -8 938 -12 1425 -10
1198 -10 2514 0 2630 16 169 23 294 21 335 -3 56 -13 747 -20 1345 -5 495 -8
577 -38 1145 -25 454 -22 439 -104 477 -60 28 -132 38 -299 40 -79 1 -92 4
-96 20 -6 23 -9 22 -87 -18z"/>
<path d="M15308 57670 c-90 -11 -169 -35 -253 -77 -102 -51 -146 -87 -287
-231 -117 -120 -131 -138 -177 -234 -60 -126 -81 -215 -81 -351 0 -183 21
-238 272 -722 52 -99 138 -265 192 -370 54 -104 127 -244 161 -310 106 -205
204 -393 450 -870 131 -253 268 -518 305 -590 37 -71 102 -197 145 -280 43
-82 108 -208 145 -280 162 -313 612 -1183 768 -1485 140 -273 160 -308 217
-390 28 -41 86 -140 127 -220 42 -80 126 -242 188 -360 62 -118 198 -379 302
-580 105 -201 209 -401 233 -445 23 -44 86 -163 138 -265 213 -411 263 -502
272 -500 6 1 25 30 43 63 88 162 220 401 267 482 182 315 253 433 373 620 74
116 161 249 194 297 32 48 58 92 58 98 0 6 -22 52 -49 103 -27 51 -135 259
-241 462 -106 204 -209 402 -230 440 -21 39 -77 147 -125 240 -49 94 -164 316
-258 495 -93 179 -284 546 -424 815 -141 270 -275 526 -298 570 -24 44 -160
305 -303 581 -143 275 -269 516 -280 535 -10 19 -47 90 -82 159 -35 69 -73
136 -85 150 -23 25 -468 880 -462 887 2 1 2287 2 5077 1 l5073 -3 -209 -94
c-258 -116 -884 -433 -1069 -541 -16 -9 -59 -33 -95 -52 -688 -373 -1565 -957
-2245 -1496 -650 -516 -1217 -1033 -1785 -1627 -554 -579 -1173 -1336 -1620
-1980 -531 -766 -934 -1451 -1352 -2295 -561 -1137 -1038 -2480 -1323 -3730
-283 -1245 -426 -2444 -442 -3700 -17 -1396 115 -2695 411 -4035 285 -1291
690 -2485 1269 -3736 150 -325 402 -807 691 -1321 258 -461 802 -1287 1160
-1763 323 -428 773 -972 1100 -1330 315 -343 816 -844 1146 -1146 1018 -931
2201 -1775 3415 -2436 275 -151 350 -189 660 -342 1187 -587 2450 -1039 3740
-1337 1773 -410 3572 -537 5360 -378 678 60 1187 133 1840 263 748 149 1315
300 2135 571 467 155 1110 412 1675 670 346 159 871 430 1245 643 96 55 195
111 220 125 217 122 812 506 1160 750 455 319 941 701 1400 1101 313 273 475
425 830 780 221 222 316 320 595 621 385 416 998 1189 1350 1705 49 72 112
164 140 205 554 811 1128 1863 1531 2810 497 1164 857 2332 1089 3530 138 713
216 1286 275 2025 57 714 65 1665 20 2400 -87 1421 -346 2829 -771 4198 -374
1206 -870 2349 -1512 3487 -652 1158 -1487 2300 -2403 3290 -1055 1140 -2239
2123 -3574 2967 -616 389 -1477 849 -2121 1133 -52 23 -105 47 -119 54 -19 8
467 12 1995 16 l2020 5 310 186 c846 506 2155 1345 2139 1370 -6 11 -31552 9
-31646 -1z m18782 -1840 c624 -22 1325 -90 1940 -190 195 -32 590 -107 597
-113 1 -2 -2 -248 -7 -546 -6 -298 -8 -547 -5 -552 4 -5 97 -6 223 -2 450 12
873 -33 1236 -132 50 -14 92 -22 95 -19 3 3 8 192 12 420 3 228 8 417 12 420
6 7 238 -66 457 -143 636 -224 1230 -475 1800 -759 642 -321 1141 -609 1705
-985 645 -429 1137 -806 1730 -1325 438 -384 1006 -950 1378 -1374 60 -69 122
-138 136 -155 221 -250 653 -797 891 -1130 757 -1061 1371 -2176 1850 -3365
262 -649 484 -1326 664 -2020 153 -592 340 -1583 363 -1925 l6 -89 -25 24
c-99 97 -191 167 -260 198 -55 23 -123 100 -311 351 -169 226 -309 406 -327
421 -3 3 -16 19 -29 35 -50 66 -161 186 -277 301 -114 113 -195 184 -373 327
-39 32 -77 69 -83 83 -9 19 -6 65 15 217 14 105 29 219 33 252 3 32 7 66 9 75
1 8 6 51 10 95 4 44 8 94 10 110 4 33 12 134 20 240 3 39 7 95 10 125 5 59 9
134 25 440 6 107 12 229 15 270 2 41 7 176 10 300 4 124 8 242 10 264 6 59
-16 97 -117 203 -51 54 -133 141 -183 193 -49 52 -131 138 -181 190 -222 234
-474 504 -634 680 -268 296 -421 460 -430 460 -4 0 -66 -57 -137 -127 -104
-103 -169 -180 -325 -388 -171 -228 -235 -311 -413 -531 -22 -27 -85 -103
-141 -169 -84 -99 -113 -144 -169 -255 -148 -295 -441 -851 -597 -1130 -91
-162 -191 -344 -223 -405 -33 -60 -81 -150 -107 -200 -89 -165 -215 -420 -227
-457 -11 -32 -9 -57 14 -175 39 -204 139 -570 185 -678 38 -90 127 -353 235
-690 37 -115 114 -327 171 -471 56 -143 113 -292 125 -330 11 -38 25 -78 30
-89 11 -26 97 -313 144 -480 49 -176 110 -328 215 -530 48 -93 127 -246 175
-340 105 -205 122 -235 241 -442 52 -88 179 -327 282 -530 203 -395 227 -439
309 -578 30 -49 125 -232 212 -405 87 -174 174 -338 193 -365 32 -44 61 -91
130 -215 27 -47 122 -172 181 -238 48 -53 49 -56 42 -101 -4 -25 -15 -64 -24
-86 -24 -54 -38 -91 -121 -300 -92 -234 -147 -314 -359 -523 -96 -94 -256
-222 -278 -222 -12 0 -50 49 -223 285 -66 91 -209 274 -235 301 -92 98 -262
280 -296 319 -24 27 -50 56 -58 65 -8 8 -96 112 -196 230 -181 214 -264 307
-530 602 -138 152 -213 240 -450 528 -115 139 -162 195 -195 230 -115 122
-310 346 -409 470 -183 229 -458 511 -574 589 -22 14 -52 34 -66 43 -14 10
-35 22 -47 27 -11 5 -33 23 -49 40 -16 16 -32 28 -36 25 -5 -3 -15 6 -24 20
-9 14 -23 22 -30 20 -16 -7 -77 51 -99 94 -9 17 -29 81 -46 144 -17 62 -47
163 -66 223 -44 138 -154 473 -164 500 -4 11 -17 52 -28 90 -60 201 -136 427
-162 480 -16 33 -47 110 -70 170 -22 61 -54 145 -71 188 -45 117 -285 835
-325 972 -95 325 -243 769 -308 923 -15 35 -43 107 -62 160 -19 54 -39 106
-44 117 -5 11 -37 94 -70 185 -34 91 -67 179 -74 195 -7 17 -39 100 -71 185
-31 85 -63 169 -71 187 -8 17 -14 34 -14 37 0 20 -93 232 -185 421 -120 247
-137 282 -277 590 -55 121 -119 270 -143 330 -23 61 -63 155 -88 210 -111 247
-153 393 -167 575 -6 69 -17 163 -25 210 -19 117 -19 527 0 735 15 163 54 469
77 605 13 82 14 127 3 208 -4 29 -2 102 4 165 14 125 55 473 76 642 9 71 11
113 4 120 -6 6 -49 1 -122 -13 -61 -13 -129 -25 -151 -28 -21 -2 -43 -7 -48
-10 -5 -3 -21 -7 -37 -9 -42 -5 -132 -29 -376 -100 -121 -35 -245 -70 -275
-78 -30 -8 -111 -32 -180 -52 -69 -20 -206 -58 -305 -84 -99 -26 -205 -55
-235 -65 -97 -29 -112 -34 -255 -71 -253 -67 -575 -177 -643 -221 -44 -29
-119 -84 -171 -127 -25 -21 -91 -61 -146 -89 -150 -77 -274 -151 -399 -236
-212 -145 -411 -276 -496 -325 -94 -55 -142 -88 -276 -192 -50 -38 -101 -77
-113 -85 -13 -8 -56 -40 -97 -70 -40 -30 -108 -80 -150 -110 -41 -30 -81 -59
-87 -65 -7 -5 -29 -21 -49 -35 -33 -23 -139 -116 -229 -200 -29 -28 -204 -235
-404 -479 -11 -14 -51 -60 -90 -104 -38 -43 -119 -138 -179 -210 -60 -73 -159
-190 -221 -262 -197 -231 -298 -355 -480 -595 -394 -518 -583 -751 -901 -1106
-84 -94 -183 -211 -219 -260 -37 -49 -79 -102 -94 -119 -14 -16 -56 -70 -91
-120 -94 -131 -147 -194 -288 -345 -212 -226 -299 -305 -426 -391 -67 -45
-179 -123 -251 -174 -71 -51 -175 -118 -230 -149 -55 -32 -120 -71 -145 -87
-51 -32 -217 -107 -325 -147 -59 -22 -86 -26 -175 -25 l-105 0 -105 50 c-58
28 -143 63 -190 78 -149 47 -217 93 -377 253 -65 64 -169 167 -232 227 -117
113 -163 173 -224 287 l-35 65 19 52 c10 29 32 75 50 104 18 29 40 66 49 82
368 646 521 873 934 1390 88 110 163 202 166 205 3 3 113 142 245 310 131 168
242 307 245 310 3 3 39 48 80 100 41 52 77 97 80 100 3 3 52 64 110 135 94
118 256 313 270 325 3 3 39 43 80 90 41 47 77 87 80 90 35 35 254 279 295 330
84 105 297 393 362 490 90 135 166 242 201 282 299 346 800 847 1257 1259 49
44 329 294 369 329 16 14 38 34 50 45 34 33 404 364 496 445 47 41 90 79 96
84 6 6 44 40 85 76 40 36 141 126 223 200 413 372 615 547 826 715 69 55 127
102 130 106 13 14 356 283 445 349 55 41 170 123 255 182 85 59 160 111 165
115 59 46 273 172 440 258 275 143 399 186 950 335 242 66 258 70 365 102 58
16 227 67 375 113 305 93 510 154 770 228 100 29 119 37 117 52 -11 58 -297
495 -470 716 -63 81 -78 108 -147 249 -14 30 -44 75 -66 100 -23 25 -61 73
-85 106 -24 34 -50 64 -57 67 -10 4 -134 -24 -257 -58 -69 -19 -404 -88 -530
-110 -52 -8 -149 -25 -215 -36 -66 -11 -210 -35 -320 -54 -267 -45 -438 -80
-565 -115 -58 -16 -195 -52 -305 -80 -263 -68 -251 -65 -318 -89 -53 -18 -135
-60 -257 -129 -58 -33 -162 -117 -263 -212 -116 -109 -142 -135 -242 -246
-160 -178 -328 -341 -440 -427 -5 -4 -20 -15 -31 -25 -12 -9 -56 -44 -99 -77
-43 -33 -105 -82 -139 -110 -34 -27 -82 -66 -106 -85 -74 -60 -225 -184 -230
-189 -3 -3 -32 -28 -65 -56 -33 -27 -62 -52 -65 -55 -9 -9 -93 -83 -155 -135
-32 -27 -84 -73 -114 -101 -31 -28 -112 -102 -181 -164 -69 -63 -154 -142
-190 -176 -288 -270 -528 -478 -845 -730 -82 -65 -152 -121 -155 -124 -3 -3
-25 -21 -50 -40 -388 -300 -688 -626 -1402 -1526 -31 -39 -121 -146 -200 -236
-79 -91 -191 -223 -250 -294 -59 -71 -117 -140 -130 -154 -13 -14 -57 -64 -98
-110 -41 -47 -85 -96 -97 -110 -12 -14 -30 -34 -40 -46 -19 -22 -102 -115
-243 -274 -101 -112 -201 -228 -250 -289 -19 -24 -40 -48 -45 -55 -39 -43
-236 -298 -352 -456 -18 -25 -36 -50 -41 -55 -5 -6 -17 -24 -28 -40 -10 -17
-27 -39 -36 -49 -10 -11 -18 -23 -18 -27 0 -4 -6 -14 -13 -21 -8 -7 -26 -31
-40 -53 -15 -22 -35 -51 -44 -65 -10 -14 -66 -93 -125 -177 -58 -84 -186 -273
-284 -420 -211 -319 -269 -402 -473 -678 -86 -115 -168 -228 -182 -250 -15
-22 -52 -71 -82 -110 -44 -54 -230 -352 -313 -500 -7 -11 -32 -56 -58 -100
-68 -118 -127 -242 -166 -350 -12 -33 -35 -89 -52 -125 -16 -36 -52 -114 -79
-175 -28 -60 -56 -123 -64 -140 -23 -49 -35 -107 -35 -167 0 -66 42 -200 91
-286 48 -85 219 -330 325 -465 94 -118 94 -118 80 -150 -56 -131 -352 -734
-413 -843 -60 -107 -105 -188 -136 -246 -13 -24 -71 -129 -130 -234 -59 -105
-112 -206 -118 -225 -7 -19 -23 -50 -37 -69 -28 -39 -830 -840 -842 -840 -26
0 -645 669 -917 993 -82 96 -233 269 -337 383 -507 559 -1410 1684 -1596 1989
-39 63 -238 290 -416 475 -61 63 -143 156 -182 205 -70 90 -82 100 -156 130
-60 23 -89 19 -181 -30 -47 -25 -90 -43 -95 -40 -12 7 -100 -35 -100 -47 0 -5
-16 -18 -36 -30 -19 -11 -40 -32 -45 -45 -7 -18 -14 -23 -28 -18 -12 3 -41 -6
-75 -25 -33 -17 -71 -30 -92 -30 -23 0 -43 -8 -59 -24 -13 -13 -38 -34 -57
-47 -18 -13 -53 -39 -78 -59 -25 -19 -61 -44 -80 -54 -19 -11 -54 -32 -78 -48
-24 -15 -46 -28 -50 -28 -4 0 -18 -11 -30 -25 -22 -23 -89 -72 -351 -258 -53
-38 -112 -84 -131 -103 -20 -19 -41 -34 -48 -34 -7 0 -12 -4 -12 -9 0 -10
-260 -207 -526 -399 -78 -56 -158 -120 -178 -143 -46 -50 -96 -128 -96 -148 0
-8 -11 -24 -25 -36 -19 -15 -27 -32 -31 -70 -4 -43 3 -72 51 -210 31 -88 70
-203 86 -255 17 -52 36 -110 44 -128 8 -18 15 -40 15 -48 0 -15 36 -111 70
-189 10 -22 36 -80 58 -130 54 -121 130 -281 247 -515 115 -231 344 -712 410
-860 25 -58 72 -150 104 -205 75 -128 235 -411 389 -685 66 -119 146 -276 177
-350 53 -124 69 -151 204 -330 161 -215 375 -485 427 -540 18 -19 38 -48 44
-65 21 -56 11 -1865 -11 -1865 -19 0 -293 310 -558 633 -62 75 -119 137 -126
137 -18 0 -100 43 -139 74 -17 13 -79 66 -137 117 -58 52 -157 137 -219 189
-62 52 -120 102 -130 110 -55 47 -116 97 -134 109 -12 8 -23 18 -26 21 -3 4
-32 26 -65 51 -33 24 -62 47 -65 50 -5 5 -157 118 -344 253 -44 32 -82 63 -84
67 -2 5 -10 9 -18 9 -8 0 -14 3 -14 8 0 4 -17 18 -37 32 -20 14 -41 30 -47 35
-6 6 -45 37 -86 68 -112 87 -142 111 -154 122 -25 24 -314 263 -351 290 -22
17 -42 32 -45 36 -8 9 -242 173 -285 199 -199 123 -375 192 -421 167 -9 -5
-42 -13 -73 -18 -136 -20 -241 -51 -241 -72 0 -6 45 -103 99 -216 117 -244
117 -244 314 -756 85 -220 169 -435 187 -478 l32 -78 146 -117 c80 -64 161
-128 179 -142 18 -14 75 -57 125 -96 51 -39 176 -133 278 -209 181 -137 350
-268 421 -329 19 -17 62 -53 94 -81 33 -27 98 -84 145 -125 94 -82 198 -171
265 -228 39 -33 180 -147 194 -157 72 -52 167 -165 317 -380 92 -132 257 -361
367 -508 204 -274 443 -624 672 -982 123 -191 369 -587 405 -650 35 -62 134
-222 177 -288 82 -125 104 -169 119 -234 8 -36 28 -91 43 -122 21 -42 30 -76
34 -136 3 -44 17 -136 31 -205 21 -106 46 -259 61 -375 2 -16 11 -77 20 -135
8 -58 19 -136 25 -175 5 -38 19 -124 30 -190 11 -66 31 -192 45 -280 14 -88
30 -180 35 -205 5 -25 16 -83 24 -130 9 -47 38 -206 66 -355 74 -404 112 -637
165 -1010 28 -195 34 -228 80 -460 42 -209 51 -276 69 -485 l14 -164 34 -31
c18 -16 137 -104 263 -195 127 -91 376 -274 553 -407 178 -134 327 -243 332
-243 5 0 11 33 14 73 3 39 16 180 28 312 12 132 24 281 26 330 4 95 -12 390
-29 515 -5 41 -19 161 -30 265 -22 209 -53 434 -99 699 -28 164 -41 228 -105
525 l-27 125 49 45 c27 25 100 90 163 143 107 90 377 358 720 714 387 401 481
514 765 914 299 420 480 701 610 945 32 61 73 136 92 168 70 123 78 250 81
1365 2 397 6 731 10 741 4 11 61 60 127 110 66 49 174 140 240 202 66 61 181
161 255 222 157 129 267 220 595 493 270 224 593 535 778 749 160 184 359 383
479 478 53 42 105 89 116 105 38 54 114 205 152 300 49 124 93 218 282 597 84
171 178 362 207 425 75 158 216 469 256 560 241 553 333 786 440 1110 112 338
270 726 383 940 58 110 59 113 88 173 25 50 50 73 256 219 247 175 343 255
514 424 195 192 376 392 522 574 64 80 170 213 236 295 66 83 176 215 245 294
223 255 261 301 415 491 131 160 332 400 471 560 55 64 152 176 215 249 270
314 531 604 644 717 104 103 253 226 456 374 275 200 463 345 578 444 226 194
457 369 722 546 69 46 159 110 201 142 84 63 170 110 237 127 23 6 61 16 85
22 23 6 66 22 94 36 29 13 65 28 80 33 87 27 168 63 219 97 91 61 128 83 142
83 17 0 16 -64 -3 -175 -13 -77 -31 -207 -50 -370 -3 -22 4 -85 14 -140 11
-55 23 -120 26 -145 15 -101 51 -214 137 -429 91 -228 209 -541 333 -881 37
-102 73 -198 81 -215 7 -16 31 -77 54 -135 23 -58 52 -129 65 -158 14 -29 25
-58 25 -65 0 -7 4 -17 8 -23 12 -13 45 -98 306 -804 81 -217 153 -408 160
-425 8 -16 25 -61 39 -100 23 -64 85 -222 107 -270 5 -11 34 -85 65 -165 31
-80 60 -154 65 -165 6 -11 30 -74 54 -140 25 -66 63 -167 86 -225 101 -256
175 -481 365 -1110 51 -168 77 -246 156 -475 28 -82 62 -190 76 -240 13 -49
31 -100 39 -113 14 -21 28 -64 71 -212 9 -30 44 -138 79 -240 66 -191 126
-394 188 -633 38 -145 123 -368 183 -477 47 -86 242 -380 336 -505 111 -149
259 -301 438 -450 13 -12 74 -59 134 -105 239 -183 547 -438 686 -566 46 -43
278 -271 515 -508 318 -319 484 -493 636 -671 113 -132 266 -310 339 -395 140
-162 172 -208 284 -405 116 -205 214 -344 310 -441 175 -177 297 -265 500
-363 143 -69 171 -79 285 -97 219 -37 500 -21 675 38 307 102 505 254 925 708
283 306 369 424 455 624 92 211 114 336 136 781 23 456 -11 669 -152 948 -41
81 -175 290 -190 295 -5 2 -9 8 -9 12 0 5 -31 48 -70 96 -73 91 -150 235 -174
326 -22 82 -61 196 -101 294 -50 123 -40 102 -260 559 -39 83 -79 166 -87 185
-9 19 -30 64 -46 100 -16 36 -55 126 -87 200 -55 128 -219 503 -265 606 -38
84 -117 256 -153 334 -44 96 -84 188 -310 720 -225 529 -220 514 -272 675 -24
72 -52 155 -63 185 -12 30 -28 80 -36 110 -9 30 -32 114 -52 185 -20 72 -40
138 -45 147 -5 10 -9 26 -9 36 0 9 -10 42 -21 72 -87 225 -135 394 -238 840
-64 280 -71 318 -71 415 0 101 12 139 60 190 33 35 58 93 52 118 -4 14 29 70
91 157 67 93 365 478 487 630 97 120 247 311 330 418 35 45 67 82 72 82 10 0
10 -7 -2 -165 -5 -71 -14 -193 -20 -270 -6 -77 -12 -162 -15 -190 -2 -27 -7
-88 -10 -135 -3 -47 -15 -184 -25 -305 -11 -121 -22 -246 -25 -278 -11 -130
-25 -340 -30 -477 -7 -184 -11 -252 -27 -425 -30 -332 7 -685 88 -827 8 -16
13 -28 10 -28 -2 0 7 -21 20 -47 133 -250 203 -331 643 -752 101 -96 235 -233
299 -305 125 -140 314 -333 398 -406 28 -25 66 -58 85 -75 134 -118 484 -374
674 -494 39 -24 87 -55 108 -68 60 -38 114 -91 192 -188 124 -156 182 -239
246 -356 34 -63 96 -165 136 -227 41 -63 77 -121 80 -130 6 -15 36 -46 106
-109 14 -13 29 -23 35 -23 41 0 -2 -834 -79 -1540 -70 -640 -227 -1493 -390
-2120 -242 -930 -566 -1841 -946 -2665 -75 -162 -326 -664 -420 -838 -472
-879 -1001 -1672 -1633 -2447 -396 -486 -616 -727 -1093 -1203 -1160 -1156
-2506 -2115 -4002 -2852 -1009 -497 -2172 -912 -3255 -1160 -863 -198 -1614
-307 -2545 -370 -318 -22 -1129 -30 -1490 -16 -1492 60 -2879 311 -4290 778
-215 71 -549 188 -605 211 -14 6 -79 32 -145 58 -204 79 -580 238 -805 339
-185 83 -816 393 -845 415 -5 4 -50 29 -100 55 -1096 584 -2179 1350 -3145
2225 -333 301 -879 852 -1161 1170 -401 453 -858 1025 -1124 1410 -304 438
-585 873 -765 1185 -451 781 -792 1491 -1121 2333 -90 230 -99 253 -206 567
-459 1348 -720 2635 -827 4085 -38 510 -46 1482 -16 1955 68 1075 220 2079
456 3005 46 179 61 236 134 490 302 1052 707 2055 1221 3022 564 1060 1241
2039 2040 2948 359 409 872 926 1264 1275 1068 949 2150 1681 3405 2304 1427
709 2964 1188 4575 1425 447 66 1265 139 1685 149 280 7 784 6 1040 -3z
m-11336 -13052 c34 -35 100 -106 146 -158 47 -52 87 -97 90 -100 14 -13 254
-275 330 -360 47 -52 87 -97 90 -100 3 -3 46 -50 95 -105 50 -55 95 -105 100
-111 9 -10 79 -87 210 -234 28 -30 82 -91 120 -134 144 -163 277 -304 540
-576 193 -199 326 -339 426 -445 165 -176 266 -282 445 -465 100 -102 226
-234 281 -295 117 -128 265 -273 308 -301 17 -10 40 -28 53 -39 25 -21 78 -55
127 -81 109 -56 122 -69 139 -142 9 -37 18 -89 21 -117 3 -27 12 -90 20 -140
112 -691 154 -1188 135 -1585 -4 -80 -11 -221 -16 -315 -11 -213 -12 -1275 -1
-1490 7 -137 15 -246 42 -555 3 -30 10 -89 15 -130 17 -138 41 -464 43 -600 2
-147 2 -147 -79 -265 -11 -16 -73 -117 -138 -224 -147 -240 -233 -364 -351
-506 -71 -85 -98 -126 -119 -183 -15 -40 -47 -98 -70 -130 -51 -69 -129 -142
-152 -142 -13 0 -15 -8 -10 -52 l6 -53 -18 43 c-34 80 -31 81 -172 -78 -36
-40 -70 -78 -75 -84 -6 -6 -55 -63 -110 -126 -94 -108 -173 -190 -186 -190 -6
0 -39 245 -74 555 -33 291 -56 412 -110 569 -24 72 -67 205 -95 296 -29 91
-60 174 -71 186 -10 11 -19 26 -19 32 0 7 -10 17 -23 23 -23 10 -57 60 -57 84
0 7 -4 15 -8 17 -5 2 -21 28 -36 58 -31 65 -38 75 -94 157 -23 34 -42 64 -42
67 0 4 -89 163 -154 276 -14 25 -63 119 -107 210 -93 187 -99 217 -75 336 29
141 46 296 51 484 6 238 16 497 20 535 2 17 6 102 10 190 4 88 9 174 12 190 2
17 6 248 8 515 2 267 8 544 14 615 14 156 12 397 -3 635 -6 97 -8 196 -4 220
18 112 19 140 7 162 -6 13 -57 101 -113 196 -55 95 -106 182 -113 194 -6 11
-33 43 -61 72 -27 28 -100 119 -162 201 -243 321 -420 546 -535 679 -83 96
-100 123 -114 178 -6 26 -31 91 -56 144 -25 53 -48 107 -51 120 -3 13 -12 28
-20 35 -8 6 -14 20 -14 31 0 11 -24 70 -54 132 -29 61 -68 152 -86 201 -43
118 -63 166 -151 353 -22 45 -56 119 -78 165 -21 45 -50 107 -64 137 -13 30
-93 204 -177 385 -181 392 -220 481 -220 503 1 22 23 48 85 97 28 22 55 44 61
50 6 5 40 35 74 65 34 30 92 83 129 116 120 112 186 164 205 164 10 0 47 -28
80 -62z m6469 -696 c158 -128 327 -229 482 -287 187 -71 567 -179 735 -209
154 -27 371 -40 418 -24 29 10 29 -2 -2 -84 -73 -193 -337 -825 -464 -1108
-80 -179 -158 -356 -174 -395 -16 -38 -35 -83 -42 -100 -8 -16 -58 -136 -111
-265 -53 -129 -107 -257 -119 -285 -13 -27 -65 -149 -116 -270 -52 -121 -105
-238 -118 -260 -14 -22 -73 -87 -131 -145 -58 -58 -160 -163 -226 -235 -198
-215 -391 -409 -565 -568 -165 -150 -332 -303 -445 -407 -32 -30 -64 -59 -71
-65 -6 -5 -36 -33 -65 -60 -178 -165 -375 -335 -390 -335 -6 0 -9 47 -8 128 1
108 -4 162 -39 367 -68 398 -104 704 -142 1205 -28 372 -48 566 -66 630 -9 30
-35 118 -59 195 -63 205 -64 183 8 235 91 65 124 96 307 279 195 195 400 429
519 593 100 136 248 361 289 439 16 30 35 65 44 79 20 32 72 179 88 250 24
102 357 760 386 760 3 0 38 -26 77 -58z"/>
<path d="M21015 46874 c-99 -140 -227 -321 -285 -402 -166 -234 -510 -753
-517 -780 -3 -15 2 -37 15 -60 19 -36 579 -1110 726 -1394 39 -76 76 -138 82
-138 28 0 595 463 1033 845 70 61 141 122 159 137 18 15 32 30 32 33 0 4 -49
100 -109 213 -60 114 -221 423 -359 687 -137 264 -285 548 -328 630 -43 83
-117 224 -164 314 -47 91 -90 166 -95 167 -6 2 -91 -112 -190 -252z"/>
<path d="M37930 46512 c-58 -32 -199 -110 -315 -172 -243 -131 -466 -260 -650
-375 -178 -112 -381 -236 -436 -269 l-47 -27 -6 -202 c-3 -111 -8 -416 -11
-677 -3 -261 -10 -736 -15 -1055 -5 -319 -14 -895 -20 -1280 -10 -681 -19
-1289 -40 -2655 -25 -1582 -51 -3306 -60 -3955 -6 -385 -17 -1121 -25 -1635
-8 -514 -19 -1248 -25 -1630 -6 -382 -15 -976 -20 -1320 -5 -344 -17 -1088
-25 -1655 -8 -566 -20 -1316 -25 -1665 -18 -1049 -28 -1845 -25 -1848 7 -8
695 42 1136 83 222 20 279 29 340 51 41 14 77 29 80 33 4 3 12 330 18 726 24
1472 31 1957 41 2650 6 391 14 985 20 1320 5 336 14 925 20 1310 5 385 14 977
20 1315 5 338 14 930 20 1315 6 385 15 986 20 1335 6 349 15 925 20 1280 6
355 15 953 20 1330 12 829 46 3056 60 3965 20 1265 30 1945 40 2660 5 396 12
807 16 913 5 157 3 192 -8 192 -7 0 -60 -26 -118 -58z"/>
<path d="M19176 41098 c-3 -67 -8 -217 -11 -333 -6 -211 -27 -554 -45 -739 -6
-54 -10 -131 -10 -171 0 -62 4 -77 28 -112 34 -52 79 -89 114 -95 33 -6 99 11
188 48 36 15 124 40 195 56 72 16 148 38 170 49 63 32 147 92 168 120 20 28
36 147 21 157 -5 4 -18 50 -28 102 -35 181 -77 319 -169 556 -30 76 -64 171
-76 211 -34 109 -102 183 -201 218 -41 15 -136 15 -159 0 -8 -4 -17 -2 -22 6
-4 7 -32 19 -61 27 -29 7 -63 15 -74 18 -21 6 -22 2 -28 -118z"/>
<path d="M41475 37348 c-2 -7 -38 -150 -80 -318 -42 -168 -103 -408 -135 -535
-32 -126 -104 -410 -160 -630 -148 -583 -281 -1108 -519 -2047 -77 -302 -234
-923 -481 -1898 -233 -920 -353 -1390 -425 -1675 -71 -278 -116 -457 -351
-1385 -58 -228 -136 -536 -174 -685 -38 -148 -132 -522 -210 -830 -78 -308
-148 -582 -156 -609 -30 -106 -64 -111 424 71 511 192 770 288 1052 390 277
100 273 99 282 114 4 8 58 212 118 454 61 242 138 544 170 670 55 216 99 388
420 1655 126 501 299 1182 492 1940 197 779 321 1265 484 1910 91 360 180 714
199 785 107 411 315 1246 315 1262 0 23 -379 445 -924 1028 -190 204 -326 345
-332 345 -2 0 -6 -6 -9 -12z"/>
<path d="M28510 32897 c-115 -145 -340 -397 -510 -571 -144 -147 -419 -406
-519 -489 -25 -21 -32 -33 -27 -50 3 -12 44 -96 92 -187 47 -91 117 -226 156
-300 39 -74 92 -175 118 -225 104 -198 162 -309 260 -500 57 -110 111 -213
120 -230 10 -16 49 -91 88 -165 189 -364 937 -1800 1032 -1980 59 -113 201
-385 315 -605 114 -220 226 -436 250 -480 23 -44 129 -246 235 -450 106 -203
201 -386 212 -407 24 -41 19 -40 218 -63 742 -85 976 -109 1245 -130 356 -26
405 -28 405 -16 0 11 -163 328 -485 941 -135 259 -324 620 -430 825 -101 194
-180 345 -220 420 -18 33 -76 146 -130 250 -54 105 -171 330 -260 500 -89 171
-247 472 -350 670 -103 198 -213 410 -245 470 -31 61 -109 209 -172 330 -63
121 -177 339 -253 485 -76 146 -157 301 -180 345 -23 44 -107 204 -185 355
-78 151 -184 354 -235 450 -51 96 -161 308 -245 470 -187 360 -219 420 -228
420 -4 0 -36 -37 -72 -83z"/>
<path d="M47974 53208 c-3 -4 3 -8 13 -9 26 -1 -25 -17 -59 -18 -20 -1 -28 4
-28 15 0 13 -7 15 -32 10 -18 -3 -38 -13 -44 -21 -6 -8 -14 -15 -19 -15 -13 0
-54 -37 -48 -44 3 -3 -1 -14 -9 -23 -16 -18 -78 -218 -68 -218 1 0 -4 -13 -10
-30 -23 -61 -80 -386 -125 -715 -30 -224 -47 -338 -75 -495 -11 -65 -18 -127
-15 -136 3 -10 72 -73 153 -140 238 -199 425 -361 597 -520 28 -25 100 -92
160 -147 61 -56 115 -102 122 -102 6 0 14 21 17 48 14 113 67 498 85 617 11
72 49 333 85 580 36 248 77 509 91 581 22 112 26 158 26 315 -1 199 -13 273
-53 316 -25 26 -82 47 -105 39 -9 -4 -24 1 -35 11 -13 12 -39 17 -86 19 -93 3
-128 9 -197 32 -33 11 -63 18 -68 15 -5 -3 -27 2 -50 10 -42 15 -167 37 -200
35 -10 -1 -20 -5 -23 -10z"/>
<path d="M53375 50110 c-59 -15 -83 -29 -114 -66 -84 -103 -184 -341 -289
-689 -37 -123 -155 -588 -217 -855 -14 -63 -30 -133 -36 -155 -15 -66 -68
-319 -99 -480 -17 -82 -34 -172 -40 -200 -29 -144 -72 -428 -85 -565 -24 -256
-36 -341 -56 -430 -11 -47 -21 -94 -23 -105 -2 -11 -5 -20 -6 -20 -3 0 -5 -20
-14 -131 l-7 -91 52 -49 c126 -119 218 -263 273 -428 58 -171 81 -314 95 -586
6 -96 13 -184 17 -195 10 -26 231 -316 358 -470 131 -159 389 -416 551 -548
326 -268 588 -452 1170 -820 105 -66 222 -142 262 -169 40 -26 75 -48 78 -48
3 0 33 -18 65 -40 32 -22 64 -40 69 -40 6 0 11 -4 11 -10 0 -5 4 -10 10 -10 5
0 76 -41 157 -91 81 -51 170 -105 197 -121 27 -16 84 -51 125 -77 234 -148
324 -202 396 -241 44 -24 95 -52 115 -63 19 -11 109 -57 200 -102 281 -141
404 -172 705 -179 354 -8 591 33 897 155 124 49 184 79 273 137 293 191 543
482 599 698 12 46 46 203 46 211 0 4 -209 82 -245 92 -22 5 -94 19 -160 31
-150 27 -256 62 -415 138 -69 33 -135 63 -146 66 -24 7 -48 -20 -99 -109 -16
-27 -59 -80 -96 -118 -119 -119 -244 -160 -494 -161 -143 -1 -153 0 -208 26
-32 15 -75 41 -96 57 -87 69 -289 196 -486 306 -493 274 -1136 662 -1425 861
-176 120 -592 411 -639 446 -24 18 -93 67 -152 108 -169 118 -310 244 -357
320 -61 99 -73 126 -195 441 -126 326 -144 377 -181 529 -14 58 -38 155 -53
215 -27 106 -28 119 -27 340 1 241 1 238 68 645 52 312 55 326 97 540 42 215
99 463 155 676 20 77 39 150 42 164 6 31 95 357 163 593 76 265 69 311 -59
398 -52 35 -102 62 -102 54 0 -3 -10 1 -22 9 -13 8 -49 21 -82 31 -32 9 -76
27 -97 41 -21 13 -47 24 -58 24 -11 0 -21 5 -23 11 -2 7 -18 12 -35 13 -17 0
-29 4 -27 7 9 16 -85 43 -144 42 -56 -2 -64 1 -78 23 -9 13 -19 24 -23 23 -3
-1 -19 -5 -36 -9z"/>
<path d="M55339 41151 c-27 -37 -272 -328 -362 -430 -148 -167 -366 -344 -549
-445 -68 -38 -116 -49 -258 -61 -41 -4 -88 -9 -105 -11 -129 -22 -502 -24
-687 -4 -116 13 -180 31 -268 75 -36 18 -94 45 -130 59 -36 15 -74 31 -85 36
-11 5 -46 20 -78 35 -32 14 -94 45 -137 70 -44 25 -84 45 -89 45 -6 0 -13 -10
-16 -22 -7 -30 -114 -1038 -122 -1146 -7 -97 -18 -84 137 -169 58 -32 119 -66
135 -75 32 -18 268 -135 325 -161 70 -31 307 -105 377 -117 55 -10 86 -10 130
-2 32 6 94 14 138 17 202 16 260 28 485 100 91 30 192 61 225 70 820 224 1449
678 1910 1380 120 182 161 263 143 280 -7 7 -143 70 -303 140 -159 71 -360
162 -445 202 -201 97 -328 153 -344 153 -8 0 -20 -8 -27 -19z"/>
<path d="M15478 40518 c-41 -35 -138 -112 -214 -173 -193 -152 -410 -330 -468
-384 -28 -25 -86 -80 -130 -122 -45 -41 -130 -122 -191 -178 -60 -57 -137
-133 -170 -170 -197 -222 -1155 -1199 -1285 -1311 -14 -12 -72 -67 -130 -123
-92 -89 -285 -269 -339 -316 -27 -24 -163 -145 -175 -156 -6 -6 -54 -48 -106
-94 -52 -46 -117 -105 -145 -130 -27 -26 -95 -87 -150 -136 -116 -103 -175
-158 -260 -236 -33 -31 -73 -67 -89 -80 -110 -93 -445 -408 -705 -664 -320
-315 -388 -394 -611 -715 -47 -67 -112 -155 -145 -194 -33 -40 -75 -91 -93
-114 -19 -22 -43 -51 -54 -64 -43 -51 -59 -70 -208 -248 -136 -163 -506 -597
-520 -610 -3 -3 -32 -36 -65 -75 -33 -38 -62 -72 -65 -75 -3 -3 -30 -34 -60
-70 -30 -36 -69 -81 -86 -100 -68 -76 -132 -149 -189 -215 -107 -124 -289
-330 -296 -335 -3 -3 -25 -27 -49 -55 -23 -27 -65 -75 -94 -105 -28 -30 -91
-100 -141 -155 -49 -55 -94 -105 -100 -111 -16 -18 -182 -199 -300 -329 -192
-211 -277 -305 -481 -530 -109 -121 -243 -270 -299 -330 -55 -61 -138 -153
-185 -205 -152 -168 -186 -205 -300 -330 -52 -58 -97 -107 -100 -110 -9 -9
-175 -194 -211 -234 -19 -22 -41 -47 -49 -56 -8 -8 -42 -47 -75 -85 -33 -38
-74 -85 -91 -105 -60 -68 -137 -155 -163 -185 -50 -57 -146 -171 -181 -214
-129 -161 -264 -301 -528 -549 -63 -58 -124 -124 -137 -146 -43 -77 -72 -328
-40 -360 8 -8 15 -19 15 -25 0 -6 4 -11 8 -11 12 0 39 -64 57 -139 26 -101 43
-270 49 -476 4 -104 8 -237 11 -295 3 -58 7 -177 10 -265 3 -88 7 -216 10
-285 3 -69 9 -264 15 -435 5 -170 12 -364 15 -430 2 -66 7 -194 10 -285 3 -91
8 -214 10 -275 3 -60 7 -191 10 -290 3 -99 7 -236 10 -305 3 -69 9 -255 15
-415 5 -159 12 -348 15 -420 3 -71 7 -211 10 -310 3 -99 8 -229 10 -290 3 -60
7 -184 10 -275 8 -242 15 -441 20 -560 3 -58 7 -193 10 -300 3 -107 8 -229 10
-270 2 -41 7 -169 10 -285 3 -115 8 -246 10 -290 2 -44 7 -172 10 -285 3 -113
8 -241 10 -285 3 -44 7 -159 10 -255 3 -96 10 -303 15 -460 6 -157 12 -352 15
-435 3 -82 7 -206 10 -275 3 -69 7 -206 10 -305 3 -99 8 -225 10 -280 3 -55 9
-235 15 -400 6 -165 12 -349 15 -410 2 -60 7 -195 10 -300 3 -104 7 -237 10
-295 3 -58 7 -184 10 -280 5 -174 11 -337 20 -565 3 -66 7 -205 10 -310 3
-104 7 -235 10 -290 3 -55 7 -179 10 -275 3 -96 8 -227 10 -290 5 -110 9 -235
20 -580 3 -85 7 -193 10 -240 3 -47 7 -193 10 -325 3 -132 8 -256 10 -275 2
-19 7 -145 11 -280 4 -135 8 -263 9 -285 1 -22 5 -139 9 -260 12 -396 16 -478
26 -630 5 -82 14 -250 19 -373 5 -123 12 -226 15 -229 3 -3 196 15 428 40 540
60 586 64 988 82 184 8 348 18 364 21 16 3 76 29 135 56 329 154 1035 441
1546 628 375 137 487 178 675 250 113 43 261 103 330 133 69 30 202 87 295
127 94 39 217 94 274 121 60 29 124 53 152 56 29 3 68 18 95 34 24 16 47 29
50 29 3 0 80 51 172 113 168 114 211 141 552 337 102 59 241 140 310 180 125
73 448 255 570 322 36 20 182 102 325 183 143 81 332 186 420 232 158 84 348
188 600 328 72 40 188 102 258 139 70 37 143 75 161 86 19 10 78 42 132 71 55
28 117 62 139 74 22 12 81 44 130 70 166 88 240 128 300 160 33 18 92 49 130
70 39 21 93 50 120 65 28 15 136 71 240 125 105 53 195 101 200 105 11 7 208
112 310 164 33 17 62 33 65 36 6 6 47 28 265 140 99 51 185 97 190 101 44 33
611 316 678 338 59 19 642 343 712 396 17 12 82 69 145 125 63 57 133 119 155
138 22 19 103 97 180 171 134 130 181 174 291 268 27 22 58 50 69 60 11 10 65
57 120 103 55 45 141 120 190 165 50 45 131 117 180 160 50 42 113 98 140 124
28 26 122 107 210 181 88 74 162 137 165 140 3 3 48 41 100 85 106 89 218 185
329 284 150 133 167 148 236 206 64 55 94 82 210 190 22 20 75 69 119 109 43
39 90 82 105 95 82 75 426 409 500 486 243 253 297 306 348 341 71 49 153 123
153 138 0 10 42 63 125 157 51 58 175 223 342 452 251 345 437 591 624 829
326 411 677 854 806 1017 73 91 133 173 133 182 0 26 -853 861 -878 858 -4 0
-57 -64 -119 -142 -150 -191 -492 -612 -716 -882 -153 -185 -366 -446 -477
-585 -66 -82 -130 -165 -205 -261 -44 -56 -121 -152 -171 -213 -87 -106 -162
-206 -268 -360 -137 -199 -408 -495 -691 -756 -44 -40 -111 -103 -150 -139
-104 -98 -328 -305 -424 -391 -116 -104 -130 -117 -181 -164 -47 -43 -248
-220 -359 -316 -36 -30 -69 -60 -75 -65 -6 -6 -56 -49 -111 -95 -55 -47 -107
-92 -115 -100 -9 -8 -47 -42 -85 -75 -90 -79 -93 -82 -161 -140 -32 -27 -65
-57 -73 -65 -9 -9 -52 -47 -95 -85 -44 -39 -87 -77 -96 -85 -9 -8 -52 -46 -95
-85 -44 -38 -100 -88 -125 -110 -81 -72 -313 -269 -390 -330 -41 -33 -87 -71
-102 -85 -14 -14 -37 -33 -50 -43 -12 -10 -41 -34 -63 -55 -92 -86 -257 -225
-350 -296 -55 -42 -133 -101 -172 -132 -40 -30 -137 -89 -215 -131 -166 -87
-240 -127 -359 -194 -48 -27 -90 -49 -93 -49 -15 0 -1299 -647 -1331 -670 -11
-9 -176 -96 -280 -149 -38 -20 -72 -38 -75 -41 -3 -3 -23 -14 -45 -26 -22 -11
-58 -31 -80 -44 -22 -13 -65 -36 -95 -53 -30 -17 -100 -56 -155 -87 -55 -31
-120 -68 -145 -82 -25 -14 -63 -36 -85 -48 -22 -13 -80 -46 -130 -73 -49 -27
-94 -52 -100 -57 -5 -4 -31 -19 -57 -34 -112 -61 -148 -82 -243 -136 -55 -31
-125 -70 -155 -87 -30 -17 -73 -40 -95 -53 -104 -60 -267 -149 -490 -270 -236
-128 -280 -151 -485 -265 -523 -290 -1463 -828 -2040 -1170 -424 -251 -447
-263 -635 -333 -88 -33 -223 -85 -300 -115 -141 -56 -319 -122 -605 -223 -85
-30 -166 -60 -180 -66 -14 -6 -61 -23 -105 -38 -44 -16 -125 -45 -180 -65
-218 -81 -515 -177 -615 -200 -105 -23 -356 -101 -375 -115 -13 -10 -125 -33
-131 -27 -3 2 -7 71 -9 153 -2 82 -7 235 -10 339 -3 105 -8 237 -10 295 -3 58
-7 188 -10 290 -4 102 -8 223 -10 270 -2 47 -7 166 -10 265 -3 99 -7 207 -10
240 -2 33 -6 184 -10 335 -4 151 -8 300 -10 330 -2 30 -6 159 -10 285 -3 127
-8 275 -11 329 -3 55 -7 129 -9 165 -2 36 -6 165 -9 286 -8 268 -15 475 -21
575 -2 41 -7 156 -10 255 -13 402 -15 484 -20 585 -5 100 -8 206 -20 630 -7
234 -14 430 -20 545 -3 50 -7 160 -10 245 -9 295 -15 466 -20 655 -3 105 -8
217 -10 250 -3 56 -8 197 -20 595 -3 91 -7 206 -10 255 -3 50 -7 178 -10 285
-3 107 -7 238 -10 290 -5 111 -12 316 -20 595 -6 246 -16 505 -20 565 -2 25
-6 133 -10 240 -3 107 -8 245 -10 305 -2 61 -6 182 -9 270 -3 88 -8 239 -12
335 -3 96 -7 202 -9 235 -2 33 -6 170 -10 305 -3 135 -8 272 -10 305 -2 33 -7
134 -10 225 -3 91 -8 203 -10 250 -2 47 -7 193 -11 325 -3 132 -7 265 -9 295
-1 30 -5 154 -9 275 -9 305 -15 456 -21 555 -2 47 -7 166 -10 265 -3 99 -7
245 -10 325 -3 80 -7 231 -10 335 -3 105 -8 240 -11 301 l-7 111 64 95 c35 52
82 125 104 162 71 119 144 207 419 506 131 142 161 175 195 215 19 22 73 82
120 134 47 52 91 99 96 105 6 6 28 31 49 56 41 47 187 207 292 319 34 36 76
84 95 106 19 22 36 42 39 45 3 3 50 55 105 115 54 61 128 142 164 180 64 68
123 133 346 380 197 219 369 408 431 475 34 36 81 87 105 115 24 27 73 80 107
117 35 37 71 76 80 86 23 26 144 163 157 176 6 6 23 27 39 46 15 19 63 73 106
120 43 47 104 117 136 155 114 135 101 120 189 220 39 44 118 136 175 205 57
69 109 130 114 136 6 6 27 30 46 54 19 24 66 80 103 124 38 45 121 146 185
226 64 80 125 154 135 165 10 11 61 72 112 135 51 63 118 142 150 175 31 33
72 86 91 118 18 31 38 63 44 70 99 122 175 209 206 236 22 19 66 59 99 90 33
31 103 95 155 142 52 47 149 135 215 195 66 60 156 141 200 179 43 39 86 77
95 85 9 8 34 30 56 49 60 53 218 195 224 202 3 3 32 29 65 59 33 29 101 90
150 136 50 45 99 91 111 101 22 19 191 174 247 227 34 32 198 182 252 231 86
78 575 539 700 660 175 169 298 284 429 400 44 39 102 91 130 116 49 45 97 87
143 127 241 206 737 724 757 789 40 133 40 389 2 732 -35 321 -48 575 -40 794
4 107 3 177 -2 177 -5 0 -44 -28 -86 -62z"/>
<path d="M16218 37107 c-88 -136 -140 -218 -154 -242 -22 -41 -39 -70 -44 -75
-3 -3 -11 -16 -19 -30 -8 -14 -37 -63 -64 -110 -27 -47 -57 -98 -67 -115 -10
-16 -41 -70 -70 -120 -29 -49 -61 -104 -71 -122 -10 -17 -29 -50 -43 -72 -15
-22 -26 -43 -26 -45 0 -4 -27 -48 -188 -311 -63 -101 -432 -657 -519 -780 -49
-70 -163 -252 -163 -261 0 -2 -10 -18 -22 -37 -13 -19 -39 -60 -58 -92 -19
-32 -49 -74 -66 -94 -17 -20 -43 -55 -58 -79 -15 -23 -38 -47 -51 -52 -46 -17
-78 -98 -79 -195 0 -43 98 -264 165 -370 77 -124 226 -404 319 -604 103 -219
109 -230 141 -270 16 -19 26 -38 23 -43 -3 -5 -6 -38 -6 -74 0 -37 -5 -70 -12
-77 -7 -7 -18 -28 -25 -47 -11 -34 -20 -49 -95 -160 -120 -179 -147 -222 -179
-285 -86 -171 -191 -572 -217 -825 -12 -119 -27 -244 -42 -342 -10 -69 3 -171
23 -183 5 -4 9 -15 9 -25 0 -10 9 -22 20 -25 11 -3 20 -12 20 -19 0 -16 170
-191 254 -261 33 -28 107 -85 165 -127 58 -42 111 -81 116 -85 17 -14 275
-197 365 -259 47 -32 234 -167 415 -299 308 -225 696 -503 1320 -947 143 -101
294 -204 335 -227 41 -24 109 -65 150 -92 80 -52 179 -84 227 -74 15 4 53 10
83 14 81 11 118 34 141 88 13 32 24 43 34 39 8 -3 14 -2 13 2 -1 4 3 17 10 30
7 12 11 26 8 31 -6 8 31 63 46 69 5 2 8 15 8 28 0 13 5 24 11 24 5 0 17 16 25
37 9 20 29 49 45 65 16 16 29 35 29 43 0 7 7 16 15 19 9 3 21 19 26 36 6 16
15 30 21 30 6 0 8 6 6 13 -3 6 3 26 13 42 41 67 47 82 53 134 4 29 10 59 13
65 19 30 21 87 4 153 -10 41 -20 56 -49 76 -21 13 -48 28 -62 32 -14 4 -33 16
-43 26 -10 11 -23 19 -29 19 -6 0 -23 12 -38 28 -39 39 -52 49 -180 135 -63
42 -128 87 -145 100 -16 12 -103 78 -195 147 -91 68 -239 183 -330 255 -606
482 -767 602 -1070 803 -129 85 -278 189 -330 231 -52 42 -114 89 -138 105
-24 17 -45 40 -49 55 -7 29 16 129 44 187 24 52 43 54 313 44 124 -5 311 -11
415 -15 105 -3 219 -8 255 -10 36 -2 128 -7 205 -10 77 -3 169 -8 205 -10 36
-2 116 -7 178 -11 l112 -6 0 54 c0 30 -7 99 -15 154 -17 113 -107 742 -130
914 -9 63 -18 132 -22 153 -3 21 -10 40 -16 42 -24 7 -244 15 -592 20 -198 3
-379 8 -403 11 l-42 5 28 42 c65 96 76 165 39 249 -13 29 -32 76 -42 103 -9
28 -23 55 -30 60 -6 6 -15 26 -19 47 -3 20 -13 39 -21 42 -8 3 -15 13 -15 22
0 10 -6 25 -13 33 -17 20 -60 139 -77 211 -7 30 -17 62 -21 70 -32 62 -113
272 -130 339 l-21 83 35 56 c31 52 97 186 97 199 0 3 53 87 118 187 115 175
228 354 307 484 l39 63 -42 252 c-23 139 -53 333 -67 432 -14 99 -36 240 -50
315 -40 209 -206 870 -219 870 -6 -1 -41 -47 -78 -103z"/>
<path d="M19220 26398 c-254 -78 -451 -156 -775 -308 -150 -70 -148 -69 -340
-150 -93 -39 -179 -75 -190 -80 -11 -5 -126 -50 -255 -100 -129 -50 -309 -121
-400 -158 -170 -68 -492 -226 -545 -266 -17 -13 -69 -32 -120 -44 -85 -20
-158 -29 -425 -52 -63 -6 -133 -12 -155 -15 -22 -2 -67 -7 -100 -9 -85 -7
-292 -26 -345 -31 -87 -9 -146 -15 -209 -20 -36 -3 -85 -7 -110 -10 -104 -11
-170 -17 -444 -40 -159 -14 -307 -27 -330 -30 -23 -2 -132 -14 -242 -25 -278
-29 -286 -30 -415 -45 -63 -8 -144 -17 -180 -21 -53 -4 -191 -21 -480 -59 -14
-1 -52 -6 -85 -10 -49 -5 -413 -56 -505 -70 -14 -2 -45 -6 -70 -10 -25 -3 -65
-10 -90 -15 -25 -4 -76 -13 -115 -19 -82 -14 -347 -59 -595 -102 -149 -26
-192 -29 -290 -25 -63 3 -134 8 -157 11 -36 6 -53 2 -110 -27 -38 -19 -98 -43
-135 -54 -38 -10 -68 -22 -68 -26 0 -5 -7 -8 -16 -8 -19 0 -98 -35 -116 -52
-21 -20 -47 -35 -123 -72 -63 -31 -231 -154 -317 -232 -18 -16 -69 -58 -113
-94 -44 -36 -82 -67 -85 -70 -20 -20 -257 -224 -355 -305 -66 -55 -210 -190
-320 -301 -210 -211 -373 -363 -667 -622 -193 -170 -357 -347 -534 -577 -44
-57 -68 -130 -68 -204 0 -65 2 -76 22 -89 12 -8 22 -20 22 -27 0 -13 86 -105
98 -105 12 0 152 -137 153 -150 3 -25 4 -29 12 -36 12 -13 8 -36 -5 -28 -10 6
-10 4 0 -8 7 -9 21 -14 32 -11 14 4 22 -2 30 -21 5 -14 15 -26 22 -26 12 0 33
-27 70 -94 10 -17 18 -28 18 -23 0 4 9 -2 20 -13 11 -11 24 -20 29 -20 5 0 13
-9 16 -20 3 -11 13 -20 21 -20 8 0 14 -4 14 -8 0 -27 195 -50 204 -25 3 7 19
13 36 13 16 0 30 5 30 10 0 6 7 10 15 10 17 0 142 82 211 137 23 18 44 33 47
33 8 0 20 12 273 260 230 225 400 379 639 576 347 285 856 674 1043 796 120
78 180 103 307 127 61 12 142 28 180 36 39 8 133 24 210 36 77 11 190 29 250
39 61 10 133 21 160 25 58 7 326 50 635 101 247 40 223 37 400 64 353 55 452
69 850 125 132 19 530 66 665 80 147 14 296 31 545 61 157 19 328 39 380 45
52 5 131 14 175 19 79 9 341 30 630 50 83 6 164 13 180 16 17 3 44 7 60 9 56
7 172 40 188 53 9 8 22 12 29 9 7 -2 30 4 50 14 21 11 42 19 47 19 5 0 48 18
95 40 47 22 89 40 94 40 5 0 17 9 27 20 10 11 22 20 28 20 5 0 33 24 61 53 29
30 68 58 91 66 22 8 114 44 205 81 91 36 203 81 250 99 47 18 114 44 150 58
302 116 658 265 845 353 277 131 357 172 417 211 37 24 102 66 145 93 125 80
258 204 306 286 38 66 49 100 37 114 -8 11 -38 88 -44 113 -3 17 -52 54 -60
46 -4 -4 -9 3 -13 15 -3 12 -11 22 -19 22 -8 0 -11 -6 -7 -17 4 -13 -3 -10
-24 10 -16 15 -36 27 -45 27 -9 0 -20 5 -23 10 -3 6 -1 10 5 10 6 0 8 5 5 10
-4 6 -11 7 -17 4 -7 -4 -8 -2 -4 4 4 6 -3 30 -14 52 -11 22 -18 45 -15 50 3 6
1 10 -4 10 -6 0 -11 7 -11 16 0 9 -6 14 -13 11 -8 -3 -18 7 -24 24 -8 20 -8
29 -1 29 6 0 3 9 -6 19 -13 14 -16 28 -11 50 4 20 3 31 -4 31 -6 0 -11 8 -11
18 0 11 -9 27 -20 37 -15 14 -20 15 -20 4 0 -8 -9 -1 -19 15 -20 29 -63 63
-46 35 5 -7 -8 1 -28 16 -36 29 -36 29 -17 50 24 26 10 45 -31 45 -15 0 -30 4
-33 8 -7 12 -156 12 -196 0z m407 -260 c-3 -8 -6 -5 -6 6 -1 11 2 17 5 13 3
-3 4 -12 1 -19z"/>
<path d="M39090 22259 c-454 -182 -1140 -379 -1770 -508 -282 -58 -652 -125
-1010 -184 l-195 -32 -7 -335 c-4 -184 -14 -830 -23 -1435 -9 -605 -18 -1101
-20 -1103 -3 -3 -26 40 -175 323 -26 50 -135 259 -243 465 -107 206 -215 413
-240 460 -24 47 -131 252 -237 455 -106 204 -216 415 -245 470 -29 55 -108
206 -175 335 -67 129 -125 239 -129 243 -5 5 -75 17 -157 29 -111 15 -180 18
-269 15 -66 -3 -264 -12 -440 -21 -176 -8 -447 -18 -602 -22 -156 -4 -283 -10
-283 -14 0 -8 62 -130 220 -430 93 -176 138 -263 298 -570 122 -235 302 -581
362 -695 32 -60 138 -263 235 -450 98 -187 207 -396 242 -465 36 -69 151 -289
255 -490 199 -382 272 -522 343 -655 23 -44 111 -213 195 -375 84 -162 169
-326 190 -365 21 -38 126 -241 235 -450 108 -209 218 -418 242 -465 25 -47
106 -202 181 -345 164 -317 181 -342 285 -442 91 -87 190 -144 320 -185 95
-29 307 -32 406 -4 292 80 520 322 571 605 10 54 19 72 67 129 71 84 105 138
142 226 16 39 91 314 166 611 75 297 163 644 195 770 32 127 123 482 201 790
132 524 209 825 538 2125 72 283 203 801 292 1150 88 349 176 695 195 769 19
73 34 135 34 137 0 8 -20 1 -190 -67z"/>
</g>
</svg>
